# Blender 4.5.0
# www.blender.org
mtllib fr3_duo_plate.mtl
o Cube
v -0.079949 -0.088712 -0.006000
v -0.080000 -0.090000 -0.004712
v -0.098712 -0.069949 -0.006000
v -0.100000 -0.070000 -0.004712
v -0.082927 -0.088477 -0.006000
v -0.083129 -0.089754 -0.004712
v -0.085781 -0.087792 -0.006000
v -0.086180 -0.089021 -0.004712
v -0.088493 -0.086669 -0.006000
v -0.089080 -0.087820 -0.004712
v -0.090996 -0.085135 -0.006000
v -0.091756 -0.086180 -0.004712
v -0.093228 -0.083228 -0.006000
v -0.094142 -0.084142 -0.004712
v -0.095135 -0.080996 -0.006000
v -0.096180 -0.081756 -0.004712
v -0.096669 -0.078493 -0.006000
v -0.097820 -0.079080 -0.004712
v -0.097792 -0.075781 -0.006000
v -0.099021 -0.076180 -0.004712
v -0.098477 -0.072927 -0.006000
v -0.099754 -0.073129 -0.004712
v -0.098712 -0.069949 0.006000
v -0.100000 -0.070000 0.004712
v -0.079949 -0.088712 0.006000
v -0.080000 -0.090000 0.004712
v -0.098477 -0.072927 0.006000
v -0.099754 -0.073129 0.004712
v -0.097792 -0.075781 0.006000
v -0.099021 -0.076180 0.004712
v -0.096669 -0.078493 0.006000
v -0.097820 -0.079080 0.004712
v -0.095135 -0.080996 0.006000
v -0.096180 -0.081756 0.004712
v -0.093228 -0.083228 0.006000
v -0.094142 -0.084142 0.004712
v -0.090996 -0.085135 0.006000
v -0.091756 -0.086180 0.004712
v -0.088493 -0.086669 0.006000
v -0.089080 -0.087820 0.004712
v -0.085781 -0.087792 0.006000
v -0.086180 -0.089021 0.004712
v -0.082927 -0.088477 0.006000
v -0.083129 -0.089754 0.004712
v -0.098712 0.069949 -0.006000
v -0.100000 0.070000 -0.004712
v -0.079949 0.088712 -0.006000
v -0.080000 0.090000 -0.004712
v -0.098477 0.072927 -0.006000
v -0.099754 0.073129 -0.004712
v -0.097792 0.075781 -0.006000
v -0.099021 0.076180 -0.004712
v -0.096669 0.078493 -0.006000
v -0.097820 0.079080 -0.004712
v -0.095135 0.080996 -0.006000
v -0.096180 0.081756 -0.004712
v -0.093228 0.083228 -0.006000
v -0.094142 0.084142 -0.004712
v -0.090996 0.085135 -0.006000
v -0.091756 0.086180 -0.004712
v -0.088493 0.086669 -0.006000
v -0.089080 0.087820 -0.004712
v -0.085781 0.087792 -0.006000
v -0.086180 0.089021 -0.004712
v -0.082927 0.088477 -0.006000
v -0.083129 0.089754 -0.004712
v -0.079949 0.088712 0.006000
v -0.080000 0.090000 0.004712
v -0.098712 0.069949 0.006000
v -0.100000 0.070000 0.004712
v -0.082927 0.088477 0.006000
v -0.083129 0.089754 0.004712
v -0.085781 0.087792 0.006000
v -0.086180 0.089021 0.004712
v -0.088493 0.086669 0.006000
v -0.089080 0.087820 0.004712
v -0.090996 0.085135 0.006000
v -0.091756 0.086180 0.004712
v -0.093228 0.083228 0.006000
v -0.094142 0.084142 0.004712
v -0.095135 0.080996 0.006000
v -0.096180 0.081756 0.004712
v -0.096669 0.078493 0.006000
v -0.097820 0.079080 0.004712
v -0.097792 0.075781 0.006000
v -0.099021 0.076180 0.004712
v -0.098477 0.072927 0.006000
v -0.099754 0.073129 0.004712
v 0.098712 -0.069949 -0.006000
v 0.100000 -0.070000 -0.004712
v 0.079949 -0.088712 -0.006000
v 0.080000 -0.090000 -0.004712
v 0.098477 -0.072927 -0.006000
v 0.099754 -0.073129 -0.004712
v 0.097792 -0.075781 -0.006000
v 0.099021 -0.076180 -0.004712
v 0.096669 -0.078493 -0.006000
v 0.097820 -0.079080 -0.004712
v 0.095135 -0.080996 -0.006000
v 0.096180 -0.081756 -0.004712
v 0.093228 -0.083228 -0.006000
v 0.094142 -0.084142 -0.004712
v 0.090996 -0.085135 -0.006000
v 0.091756 -0.086180 -0.004712
v 0.088493 -0.086669 -0.006000
v 0.089080 -0.087820 -0.004712
v 0.085781 -0.087792 -0.006000
v 0.086180 -0.089021 -0.004712
v 0.082927 -0.088477 -0.006000
v 0.083129 -0.089754 -0.004712
v 0.079949 -0.088712 0.006000
v 0.080000 -0.090000 0.004712
v 0.098712 -0.069949 0.006000
v 0.100000 -0.070000 0.004712
v 0.082927 -0.088477 0.006000
v 0.083129 -0.089754 0.004712
v 0.085781 -0.087792 0.006000
v 0.086180 -0.089021 0.004712
v 0.088493 -0.086669 0.006000
v 0.089080 -0.087820 0.004712
v 0.090996 -0.085135 0.006000
v 0.091756 -0.086180 0.004712
v 0.093228 -0.083228 0.006000
v 0.094142 -0.084142 0.004712
v 0.095135 -0.080996 0.006000
v 0.096180 -0.081756 0.004712
v 0.096669 -0.078493 0.006000
v 0.097820 -0.079080 0.004712
v 0.097792 -0.075781 0.006000
v 0.099021 -0.076180 0.004712
v 0.098477 -0.072927 0.006000
v 0.099754 -0.073129 0.004712
v 0.079949 0.088712 -0.006000
v 0.080000 0.090000 -0.004712
v 0.098712 0.069949 -0.006000
v 0.100000 0.070000 -0.004712
v 0.082927 0.088477 -0.006000
v 0.083129 0.089754 -0.004712
v 0.085781 0.087792 -0.006000
v 0.086180 0.089021 -0.004712
v 0.088493 0.086669 -0.006000
v 0.089080 0.087820 -0.004712
v 0.090996 0.085135 -0.006000
v 0.091756 0.086180 -0.004712
v 0.093228 0.083228 -0.006000
v 0.094142 0.084142 -0.004712
v 0.095135 0.080996 -0.006000
v 0.096180 0.081756 -0.004712
v 0.096669 0.078493 -0.006000
v 0.097820 0.079080 -0.004712
v 0.097792 0.075781 -0.006000
v 0.099021 0.076180 -0.004712
v 0.098477 0.072927 -0.006000
v 0.099754 0.073129 -0.004712
v 0.098712 0.069949 0.006000
v 0.100000 0.070000 0.004712
v 0.079949 0.088712 0.006000
v 0.080000 0.090000 0.004712
v 0.098477 0.072927 0.006000
v 0.099754 0.073129 0.004712
v 0.097792 0.075781 0.006000
v 0.099021 0.076180 0.004712
v 0.096669 0.078493 0.006000
v 0.097820 0.079080 0.004712
v 0.095135 0.080996 0.006000
v 0.096180 0.081756 0.004712
v 0.093228 0.083228 0.006000
v 0.094142 0.084142 0.004712
v 0.090996 0.085135 0.006000
v 0.091756 0.086180 0.004712
v 0.088493 0.086669 0.006000
v 0.089080 0.087820 0.004712
v 0.085781 0.087792 0.006000
v 0.086180 0.089021 0.004712
v 0.082927 0.088477 0.006000
v 0.083129 0.089754 0.004712
vn -0.0555 -0.7048 -0.7072
vn -0.0555 -0.7048 0.7072
vn -0.1651 -0.6874 -0.7073
vn -0.1651 -0.6874 0.7073
vn -0.2705 -0.6533 -0.7071
vn -0.2705 -0.6533 0.7071
vn -0.3695 -0.6029 -0.7071
vn -0.3695 -0.6029 0.7071
vn -0.4592 -0.5376 -0.7072
vn -0.4592 -0.5376 0.7072
vn -0.5376 -0.4592 -0.7072
vn -0.5376 -0.4592 0.7072
vn -0.6029 -0.3695 -0.7071
vn -0.6029 -0.3695 0.7071
vn -0.6533 -0.2705 -0.7071
vn -0.6533 -0.2705 0.7071
vn -0.6874 -0.1651 -0.7073
vn -0.6874 -0.1651 0.7073
vn -0.7048 -0.0555 -0.7072
vn -0.7048 -0.0555 0.7072
vn -0.0555 0.7048 0.7072
vn -0.0555 0.7048 -0.7072
vn -0.1651 0.6874 0.7073
vn -0.1651 0.6874 -0.7073
vn -0.2705 0.6533 0.7071
vn -0.2705 0.6533 -0.7071
vn -0.3695 0.6029 0.7071
vn -0.3695 0.6029 -0.7071
vn -0.4592 0.5376 0.7072
vn -0.4592 0.5376 -0.7072
vn -0.5376 0.4592 0.7072
vn -0.5376 0.4592 -0.7072
vn -0.6029 0.3695 0.7071
vn -0.6029 0.3695 -0.7071
vn -0.6533 0.2705 0.7071
vn -0.6533 0.2705 -0.7071
vn -0.6874 0.1651 0.7073
vn -0.6874 0.1651 -0.7073
vn -0.7048 0.0555 0.7072
vn -0.7048 0.0555 -0.7072
vn 0.7048 0.0555 0.7072
vn 0.7048 0.0555 -0.7072
vn 0.6874 0.1651 0.7073
vn 0.6874 0.1651 -0.7073
vn 0.6533 0.2705 0.7071
vn 0.6533 0.2705 -0.7071
vn 0.6029 0.3695 0.7071
vn 0.6029 0.3695 -0.7071
vn 0.5376 0.4592 0.7072
vn 0.5376 0.4592 -0.7072
vn 0.4592 0.5376 0.7072
vn 0.4592 0.5376 -0.7072
vn 0.3695 0.6029 0.7071
vn 0.3695 0.6029 -0.7071
vn 0.2705 0.6533 0.7071
vn 0.2705 0.6533 -0.7071
vn 0.1651 0.6874 0.7073
vn 0.1651 0.6874 -0.7073
vn 0.0555 0.7048 0.7072
vn 0.0555 0.7048 -0.7072
vn 0.0555 -0.7048 0.7072
vn 0.0555 -0.7048 -0.7072
vn 0.1651 -0.6874 0.7073
vn 0.1651 -0.6874 -0.7073
vn 0.2705 -0.6533 0.7071
vn 0.2705 -0.6533 -0.7071
vn 0.3695 -0.6029 0.7071
vn 0.3695 -0.6029 -0.7071
vn 0.4592 -0.5376 0.7072
vn 0.4592 -0.5376 -0.7072
vn 0.5376 -0.4592 0.7072
vn 0.5376 -0.4592 -0.7072
vn 0.6029 -0.3695 0.7071
vn 0.6029 -0.3695 -0.7071
vn 0.6533 -0.2705 0.7071
vn 0.6533 -0.2705 -0.7071
vn 0.6874 -0.1651 0.7073
vn 0.6874 -0.1651 -0.7073
vn 0.7048 -0.0555 0.7072
vn 0.7048 -0.0555 -0.7072
vn -0.7071 -0.0000 -0.7071
vn -0.0000 0.7071 -0.7071
vn 0.7071 -0.0000 -0.7071
vn -0.0000 -0.7071 -0.7071
vn -0.7071 -0.0000 0.7071
vn -0.0000 -0.7071 0.7071
vn 0.7071 -0.0000 0.7071
vn -0.0000 0.7071 0.7071
vn -0.0000 -0.0000 -1.0000
vn -0.0784 -0.9969 -0.0000
vn -0.0000 -1.0000 -0.0000
vn -0.9969 -0.0787 -0.0000
vn -1.0000 -0.0000 -0.0000
vn -0.2331 -0.9724 -0.0000
vn -0.3826 -0.9239 -0.0000
vn -0.5225 -0.8526 -0.0000
vn -0.6495 -0.7604 -0.0000
vn -0.7604 -0.6495 -0.0000
vn -0.8526 -0.5225 -0.0000
vn -0.9239 -0.3826 -0.0000
vn -0.9723 -0.2336 -0.0000
vn -0.0000 -0.0000 1.0000
vn -0.9969 0.0787 -0.0000
vn -0.0000 1.0000 -0.0000
vn -0.0784 0.9969 -0.0000
vn -0.9723 0.2336 -0.0000
vn -0.9239 0.3826 -0.0000
vn -0.8526 0.5225 -0.0000
vn -0.7604 0.6495 -0.0000
vn -0.6495 0.7604 -0.0000
vn -0.5225 0.8526 -0.0000
vn -0.3826 0.9239 -0.0000
vn -0.2331 0.9724 -0.0000
vn 0.9969 -0.0787 -0.0000
vn 1.0000 -0.0000 -0.0000
vn 0.0784 -0.9969 -0.0000
vn 0.9723 -0.2336 -0.0000
vn 0.9239 -0.3826 -0.0000
vn 0.8526 -0.5225 -0.0000
vn 0.7604 -0.6495 -0.0000
vn 0.6495 -0.7604 -0.0000
vn 0.5225 -0.8526 -0.0000
vn 0.3826 -0.9239 -0.0000
vn 0.2331 -0.9724 -0.0000
vn 0.0784 0.9969 -0.0000
vn 0.9969 0.0787 -0.0000
vn 0.2331 0.9724 -0.0000
vn 0.3826 0.9239 -0.0000
vn 0.5225 0.8526 -0.0000
vn 0.6495 0.7604 -0.0000
vn 0.7604 0.6495 -0.0000
vn 0.8526 0.5225 -0.0000
vn 0.9239 0.3826 -0.0000
vn 0.9723 0.2336 -0.0000
vt 0.146344 0.747885
vt 0.150070 0.748214
vt 0.150000 0.750000
vt 0.146089 0.749658
vt 0.849930 0.748214
vt 0.853656 0.747885
vt 0.853911 0.749658
vt 0.850000 0.750000
vt 0.142776 0.746933
vt 0.142275 0.748640
vt 0.857224 0.746933
vt 0.857725 0.748640
vt 0.139386 0.745373
vt 0.138650 0.746973
vt 0.860614 0.745373
vt 0.861350 0.746972
vt 0.136257 0.743242
vt 0.135305 0.744695
vt 0.863743 0.743242
vt 0.864694 0.744695
vt 0.133467 0.740595
vt 0.132322 0.741864
vt 0.866533 0.740595
vt 0.867678 0.741864
vt 0.131084 0.737495
vt 0.129775 0.738550
vt 0.868916 0.737495
vt 0.870225 0.738550
vt 0.129166 0.734018
vt 0.127725 0.734833
vt 0.870834 0.734018
vt 0.872275 0.734833
vt 0.127762 0.730251
vt 0.126224 0.730806
vt 0.872238 0.730252
vt 0.873776 0.730806
vt 0.126906 0.726287
vt 0.125308 0.726568
vt 0.873094 0.726287
vt 0.874692 0.726568
vt 0.126613 0.722152
vt 0.125000 0.722222
vt 0.873387 0.722152
vt 0.875000 0.722222
vt 0.853656 0.502115
vt 0.849931 0.501786
vt 0.850000 0.500000
vt 0.853911 0.500342
vt 0.150069 0.501786
vt 0.146344 0.502115
vt 0.146089 0.500342
vt 0.150000 0.500000
vt 0.857224 0.503067
vt 0.857725 0.501360
vt 0.142776 0.503067
vt 0.142275 0.501360
vt 0.860614 0.504627
vt 0.861350 0.503028
vt 0.139386 0.504627
vt 0.138650 0.503028
vt 0.863743 0.506758
vt 0.864695 0.505305
vt 0.136257 0.506757
vt 0.135305 0.505305
vt 0.866533 0.509405
vt 0.867678 0.508136
vt 0.133467 0.509405
vt 0.132322 0.508136
vt 0.868916 0.512506
vt 0.870225 0.511450
vt 0.131084 0.512506
vt 0.129775 0.511450
vt 0.870834 0.515982
vt 0.872275 0.515167
vt 0.129166 0.515982
vt 0.127725 0.515167
vt 0.872238 0.519749
vt 0.873776 0.519194
vt 0.127762 0.519749
vt 0.126224 0.519194
vt 0.873094 0.523713
vt 0.874692 0.523432
vt 0.126906 0.523713
vt 0.125308 0.523432
vt 0.873387 0.527848
vt 0.875000 0.527778
vt 0.126613 0.527848
vt 0.125000 0.527778
vt 0.626889 0.523703
vt 0.626597 0.527838
vt 0.598159 0.527778
vt 0.598400 0.523432
vt 0.373404 0.527838
vt 0.373111 0.523703
vt 0.401600 0.523432
vt 0.401841 0.527778
vt 0.627744 0.519739
vt 0.599118 0.519194
vt 0.372256 0.519739
vt 0.400883 0.519194
vt 0.629145 0.515971
vt 0.600294 0.515167
vt 0.370855 0.515971
vt 0.399706 0.515167
vt 0.631058 0.512491
vt 0.601900 0.511451
vt 0.368942 0.512491
vt 0.398100 0.511450
vt 0.633434 0.509377
vt 0.603897 0.508119
vt 0.366566 0.509377
vt 0.396104 0.508119
vt 0.636217 0.506714
vt 0.606234 0.505272
vt 0.363783 0.506714
vt 0.393766 0.505272
vt 0.639334 0.504575
vt 0.608855 0.502992
vt 0.360666 0.504575
vt 0.391145 0.502993
vt 0.642701 0.502994
vt 0.611695 0.501320
vt 0.357299 0.502994
vt 0.388305 0.501320
vt 0.646092 0.501867
vt 0.614685 0.500297
vt 0.353908 0.501867
vt 0.385316 0.500297
vt 0.649028 0.500757
vt 0.621842 0.498699
vt 0.350972 0.500757
vt 0.378158 0.498699
vt 0.646092 0.748133
vt 0.649028 0.749243
vt 0.621842 0.751301
vt 0.614684 0.749703
vt 0.350972 0.749242
vt 0.353908 0.748133
vt 0.385316 0.749703
vt 0.378158 0.751301
vt 0.642701 0.747006
vt 0.611695 0.748680
vt 0.357299 0.747006
vt 0.388305 0.748680
vt 0.639334 0.745425
vt 0.608855 0.747008
vt 0.360666 0.745425
vt 0.391145 0.747007
vt 0.636217 0.743286
vt 0.606234 0.744728
vt 0.363783 0.743286
vt 0.393766 0.744728
vt 0.633435 0.740623
vt 0.603897 0.741881
vt 0.366566 0.740623
vt 0.396104 0.741881
vt 0.631057 0.737509
vt 0.601900 0.738550
vt 0.368943 0.737509
vt 0.398100 0.738550
vt 0.629145 0.734029
vt 0.600294 0.734833
vt 0.370855 0.734029
vt 0.399706 0.734833
vt 0.627744 0.730261
vt 0.599117 0.730806
vt 0.372256 0.730262
vt 0.400883 0.730806
vt 0.626889 0.726297
vt 0.598400 0.726568
vt 0.373111 0.726297
vt 0.401600 0.726568
vt 0.626597 0.722162
vt 0.598159 0.722222
vt 0.373404 0.722162
vt 0.401841 0.722222
vt 0.401841 0.975000
vt 0.598159 0.975000
vt 0.598159 0.978911
vt 0.401841 0.978911
vt 0.401841 0.023432
vt 0.598159 0.023432
vt 0.598159 0.027778
vt 0.401841 0.027778
vt 0.598159 0.222222
vt 0.401841 0.222222
vt 0.598159 0.982726
vt 0.401841 0.982726
vt 0.598159 0.986350
vt 0.401841 0.986350
vt 0.598159 0.989695
vt 0.401841 0.989695
vt 0.598159 1.000000
vt 0.401841 1.000000
vt 0.401841 0.000000
vt 0.598159 0.000000
vt 0.598159 0.011450
vt 0.401841 0.011450
vt 0.598159 0.015167
vt 0.401841 0.015167
vt 0.598159 0.019194
vt 0.401841 0.019194
vt 0.598159 0.226568
vt 0.401841 0.226568
vt 0.401841 0.275000
vt 0.598159 0.275000
vt 0.401841 0.271089
vt 0.598159 0.271089
vt 0.598159 0.230806
vt 0.401841 0.230806
vt 0.598159 0.234833
vt 0.401841 0.234833
vt 0.598159 0.238550
vt 0.401841 0.238550
vt 0.598159 0.250000
vt 0.401841 0.250000
vt 0.598159 0.260305
vt 0.401841 0.260305
vt 0.598159 0.263650
vt 0.401841 0.263650
vt 0.598159 0.267275
vt 0.401841 0.267275
s 1
f 5/1/1 1/2/1 2/3/1 6/4/1
f 25/5/2 43/6/2 44/7/2 26/8/2
f 7/9/3 5/1/3 6/4/3 8/10/3
f 43/6/4 41/11/4 42/12/4 44/7/4
f 9/13/5 7/9/5 8/10/5 10/14/5
f 41/11/6 39/15/6 40/16/6 42/12/6
f 11/17/7 9/13/7 10/14/7 12/18/7
f 39/15/8 37/19/8 38/20/8 40/16/8
f 13/21/9 11/17/9 12/18/9 14/22/9
f 37/19/10 35/23/10 36/24/10 38/20/10
f 15/25/11 13/21/11 14/22/11 16/26/11
f 35/23/12 33/27/12 34/28/12 36/24/12
f 17/29/13 15/25/13 16/26/13 18/30/13
f 33/27/14 31/31/14 32/32/14 34/28/14
f 19/33/15 17/29/15 18/30/15 20/34/15
f 31/31/16 29/35/16 30/36/16 32/32/16
f 21/37/17 19/33/17 20/34/17 22/38/17
f 29/35/18 27/39/18 28/40/18 30/36/18
f 3/41/19 21/37/19 22/38/19 4/42/19
f 27/39/20 23/43/20 24/44/20 28/40/20
f 71/45/21 67/46/21 68/47/21 72/48/21
f 47/49/22 65/50/22 66/51/22 48/52/22
f 73/53/23 71/45/23 72/48/23 74/54/23
f 65/50/24 63/55/24 64/56/24 66/51/24
f 75/57/25 73/53/25 74/54/25 76/58/25
f 63/55/26 61/59/26 62/60/26 64/56/26
f 77/61/27 75/57/27 76/58/27 78/62/27
f 61/59/28 59/63/28 60/64/28 62/60/28
f 79/65/29 77/61/29 78/62/29 80/66/29
f 59/63/30 57/67/30 58/68/30 60/64/30
f 81/69/31 79/65/31 80/66/31 82/70/31
f 57/67/32 55/71/32 56/72/32 58/68/32
f 83/73/33 81/69/33 82/70/33 84/74/33
f 55/71/34 53/75/34 54/76/34 56/72/34
f 85/77/35 83/73/35 84/74/35 86/78/35
f 53/75/36 51/79/36 52/80/36 54/76/36
f 87/81/37 85/77/37 86/78/37 88/82/37
f 51/79/38 49/83/38 50/84/38 52/80/38
f 69/85/39 87/81/39 88/82/39 70/86/39
f 49/83/40 45/87/40 46/88/40 50/84/40
f 159/89/41 155/90/41 156/91/41 160/92/41
f 135/93/42 153/94/42 154/95/42 136/96/42
f 161/97/43 159/89/43 160/92/43 162/98/43
f 153/94/44 151/99/44 152/100/44 154/95/44
f 163/101/45 161/97/45 162/98/45 164/102/45
f 151/99/46 149/103/46 150/104/46 152/100/46
f 165/105/47 163/101/47 164/102/47 166/106/47
f 149/103/48 147/107/48 148/108/48 150/104/48
f 167/109/49 165/105/49 166/106/49 168/110/49
f 147/107/50 145/111/50 146/112/50 148/108/50
f 169/113/51 167/109/51 168/110/51 170/114/51
f 145/111/52 143/115/52 144/116/52 146/112/52
f 171/117/53 169/113/53 170/114/53 172/118/53
f 143/115/54 141/119/54 142/120/54 144/116/54
f 173/121/55 171/117/55 172/118/55 174/122/55
f 141/119/56 139/123/56 140/124/56 142/120/56
f 175/125/57 173/121/57 174/122/57 176/126/57
f 139/123/58 137/127/58 138/128/58 140/124/58
f 157/129/59 175/125/59 176/126/59 158/130/59
f 137/127/60 133/131/60 134/132/60 138/128/60
f 115/133/61 111/134/61 112/135/61 116/136/61
f 91/137/62 109/138/62 110/139/62 92/140/62
f 117/141/63 115/133/63 116/136/63 118/142/63
f 109/138/64 107/143/64 108/144/64 110/139/64
f 119/145/65 117/141/65 118/142/65 120/146/65
f 107/143/66 105/147/66 106/148/66 108/144/66
f 121/149/67 119/145/67 120/146/67 122/150/67
f 105/147/68 103/151/68 104/152/68 106/148/68
f 123/153/69 121/149/69 122/150/69 124/154/69
f 103/151/70 101/155/70 102/156/70 104/152/70
f 125/157/71 123/153/71 124/154/71 126/158/71
f 101/155/72 99/159/72 100/160/72 102/156/72
f 127/161/73 125/157/73 126/158/73 128/162/73
f 99/159/74 97/163/74 98/164/74 100/160/74
f 129/165/75 127/161/75 128/162/75 130/166/75
f 97/163/76 95/167/76 96/168/76 98/164/76
f 131/169/77 129/165/77 130/166/77 132/170/77
f 95/167/78 93/171/78 94/172/78 96/168/78
f 113/173/79 131/169/79 132/170/79 114/174/79
f 93/171/80 89/175/80 90/176/80 94/172/80
f 4/42/81 46/88/81 45/87/81 3/41/81
f 48/52/82 134/132/82 133/131/82 47/49/82
f 136/96/83 90/176/83 89/175/83 135/93/83
f 92/140/84 2/3/84 1/2/84 91/137/84
f 23/43/85 69/85/85 70/86/85 24/44/85
f 111/134/86 25/5/86 26/8/86 112/135/86
f 114/174/87 156/91/87 155/90/87 113/173/87
f 158/130/88 68/47/88 67/46/88 157/129/88
f 45/87/89 49/83/89 51/79/89 53/75/89 55/71/89 57/67/89 59/63/89 61/59/89 63/55/89 65/50/89 47/49/89 133/131/89 137/127/89 139/123/89 141/119/89 143/115/89 145/111/89 147/107/89 149/103/89 151/99/89 153/94/89 135/93/89 89/175/89 93/171/89 95/167/89 97/163/89 99/159/89 101/155/89 103/151/89 105/147/89 107/143/89 109/138/89 91/137/89 1/2/89 5/1/89 7/9/89 9/13/89 11/17/89 13/21/89 15/25/89 17/29/89 19/33/89 21/37/89 3/41/89
f 2/177/90 26/178/90 44/179/90 6/180/90
f 92/140/91 112/135/91 26/178/91 2/177/91
f 22/181/92 28/182/92 24/183/92 4/184/92
f 4/184/93 24/183/93 70/185/93 46/186/93
f 6/180/94 44/179/94 42/187/94 8/188/94
f 8/188/95 42/187/95 40/189/95 10/190/95
f 10/190/96 40/189/96 38/191/96 12/192/96
f 12/192/97 38/191/97 36/193/97 14/194/97
f 14/195/98 36/196/98 34/197/98 16/198/98
f 16/198/99 34/197/99 32/199/99 18/200/99
f 18/200/100 32/199/100 30/201/100 20/202/100
f 20/202/101 30/201/101 28/182/101 22/181/101
f 155/90/102 159/89/102 161/97/102 163/101/102 165/105/102 167/109/102 169/113/102 171/117/102 173/121/102 175/125/102 157/129/102 67/46/102 71/45/102 73/53/102 75/57/102 77/61/102 79/65/102 81/69/102 83/73/102 85/77/102 87/81/102 69/85/102 23/43/102 27/39/102 29/35/102 31/31/102 33/27/102 35/23/102 37/19/102 39/15/102 41/11/102 43/6/102 25/5/102 111/134/102 115/133/102 117/141/102 119/145/102 121/149/102 123/153/102 125/157/102 127/161/102 129/165/102 131/169/102 113/173/102
f 88/203/103 50/204/103 46/186/103 70/185/103
f 48/205/104 68/206/104 158/130/104 134/132/104
f 68/206/105 48/205/105 66/207/105 72/208/105
f 86/209/106 52/210/106 50/204/106 88/203/106
f 84/211/107 54/212/107 52/210/107 86/209/107
f 82/213/108 56/214/108 54/212/108 84/211/108
f 80/215/109 58/216/109 56/214/109 82/213/109
f 78/217/110 60/218/110 58/216/110 80/215/110
f 76/219/111 62/220/111 60/218/111 78/217/111
f 74/221/112 64/222/112 62/220/112 76/219/112
f 72/208/113 66/207/113 64/222/113 74/221/113
f 132/170/114 94/172/114 90/176/114 114/174/114
f 136/96/115 156/91/115 114/174/115 90/176/115
f 112/135/116 92/140/116 110/139/116 116/136/116
f 130/166/117 96/168/117 94/172/117 132/170/117
f 128/162/118 98/164/118 96/168/118 130/166/118
f 126/158/119 100/160/119 98/164/119 128/162/119
f 124/154/120 102/156/120 100/160/120 126/158/120
f 122/150/121 104/152/121 102/156/121 124/154/121
f 120/146/122 106/148/122 104/152/122 122/150/122
f 118/142/123 108/144/123 106/148/123 120/146/123
f 116/136/124 110/139/124 108/144/124 118/142/124
f 176/126/125 138/128/125 134/132/125 158/130/125
f 156/91/126 136/96/126 154/95/126 160/92/126
f 174/122/127 140/124/127 138/128/127 176/126/127
f 172/118/128 142/120/128 140/124/128 174/122/128
f 170/114/129 144/116/129 142/120/129 172/118/129
f 168/110/130 146/112/130 144/116/130 170/114/130
f 166/106/131 148/108/131 146/112/131 168/110/131
f 164/102/132 150/104/132 148/108/132 166/106/132
f 162/98/133 152/100/133 150/104/133 164/102/133
f 160/92/134 154/95/134 152/100/134 162/98/134
