# Blender 4.5.0
# www.blender.org
mtllib d405_glass.mtl
o d405_o
v -19.633152 15.392879 -1.070000
v 19.534616 15.758933 -1.070000
v 19.830000 -13.000000 -1.070000
v -15.758933 19.534616 -1.070000
v -16.905853 19.042065 -1.070000
v 15.392879 19.633152 -1.070000
v -14.851027 19.736031 -1.070000
v -19.803307 14.204547 -1.070000
v 13.000000 -19.830000 -1.070000
v -17.355564 -18.757460 -1.070000
v -19.534616 -15.758933 -1.070000
v -19.042065 -16.905853 -1.070000
v -18.260090 -17.969912 -1.070000
v -13.000000 -19.830000 -1.070000
v 19.042065 16.905853 -1.070000
v 19.736031 14.851027 -1.070000
v -18.260090 -17.969912 -0.070000
v -19.534616 -15.758933 -0.070000
v -19.042065 -16.905853 -0.070000
v -17.355564 -18.757460 -0.070000
v -15.392879 -19.633152 -0.070000
v -16.418268 -19.288708 -0.070000
v -19.736031 -14.851027 -0.070000
v -14.204547 -19.803307 -0.070000
v -13.000000 -19.830000 -0.070000
v -19.830000 -13.000000 -0.070000
v 13.000000 -19.830000 -0.070000
v -19.633152 15.392879 -0.070000
v -18.757460 17.355564 -0.070000
v -19.288708 16.418268 -0.070000
v 16.905853 -19.042065 -0.070000
v 17.969912 -18.260090 -0.070000
v 15.758933 -19.534616 -0.070000
v -17.969912 18.260090 -0.070000
v -15.758933 19.534616 -0.070000
v -16.905853 19.042065 -0.070000
v 19.633152 -15.392879 -0.070000
v 14.851027 -19.736031 -0.070000
v 18.757460 -17.355564 -0.070000
v 19.288708 -16.418268 -0.070000
v -19.803307 14.204547 -0.070000
v -14.851027 19.736031 -0.070000
v 19.803307 -14.204547 -0.070000
v 19.830000 -13.000000 -0.070000
v -19.830000 13.000000 -0.070000
v -13.000000 19.830000 -0.070000
v 19.830000 13.000000 -0.070000
v 13.000000 19.830000 -0.070000
v 14.204547 19.803307 -0.070000
v 19.736031 14.851027 -0.070000
v 15.392879 19.633152 -0.070000
v 19.534616 15.758933 -0.070000
v 17.355564 18.757460 -0.070000
v 16.418268 19.288708 -0.070000
v 18.260090 17.969912 -0.070000
v 19.042065 16.905853 -0.070000
v 14.204547 19.803307 -1.070000
v 17.969912 -18.260090 -1.070000
v 15.758933 -19.534616 -1.070000
v 16.905853 -19.042065 -1.070000
v -19.830000 -13.000000 -1.070000
v 18.260090 17.969912 -1.070000
v 16.418268 19.288708 -1.070000
v 17.355564 18.757460 -1.070000
v 13.000000 19.830000 -1.070000
v 19.830000 13.000000 -1.070000
v -13.000000 19.830000 -1.070000
v -19.830000 13.000000 -1.070000
v 19.803307 -14.204547 -1.070000
v 19.288708 -16.418268 -1.070000
v 18.757460 -17.355564 -1.070000
v 14.851027 -19.736031 -1.070000
v 19.633152 -15.392879 -1.070000
v -17.969912 18.260090 -1.070000
v -19.288708 16.418268 -1.070000
v -18.757460 17.355564 -1.070000
v -14.204547 -19.803307 -1.070000
v -19.736031 -14.851027 -1.070000
v -16.418268 -19.288708 -1.070000
v -15.392879 -19.633152 -1.070000
vn -0.0000 -0.0000 -1.0000
vn -0.9479 0.3184 -0.0000
vn -0.8058 -0.5922 -0.0000
vn 0.0507 -0.9987 -0.0000
vn 0.9998 -0.0222 -0.0000
vn -0.9189 -0.3946 -0.0000
vn -0.9998 0.0222 -0.0000
vn -0.9987 -0.0507 -0.0000
vn -0.0000 -1.0000 -0.0000
vn 0.7542 -0.6567 -0.0000
vn -1.0000 -0.0000 -0.0000
vn 0.5922 -0.8058 -0.0000
vn -0.2166 0.9763 -0.0000
vn 0.8700 -0.4931 -0.0000
vn -0.0507 0.9987 -0.0000
vn -0.8700 0.4931 -0.0000
vn -0.0000 1.0000 -0.0000
vn 0.1417 0.9899 -0.0000
vn 0.9899 -0.1417 -0.0000
vn 0.2166 -0.9763 -0.0000
vn 0.9763 0.2166 -0.0000
vn -0.0222 -0.9998 -0.0000
vn -0.5922 0.8058 -0.0000
vn 0.3946 -0.9189 -0.0000
vn -0.3946 0.9189 -0.0000
vn 0.3184 0.9479 -0.0000
vn -0.6567 -0.7542 -0.0000
vn -0.7542 0.6567 -0.0000
vn 0.9987 0.0507 -0.0000
vn 0.9189 0.3946 -0.0000
vn 0.6567 0.7542 -0.0000
vn -0.4931 -0.8700 -0.0000
vn 0.9479 -0.3184 -0.0000
vn 0.8058 0.5922 -0.0000
vn -0.9763 -0.2166 -0.0000
vn 0.4931 0.8700 -0.0000
vn 0.0222 0.9998 -0.0000
vn -0.1417 -0.9899 -0.0000
vn -0.9899 0.1417 -0.0000
vn -0.3184 -0.9479 -0.0000
vn 1.0000 -0.0000 -0.0000
vn -0.0000 -0.0000 1.0000
s 0
f 17//1 19//1 18//1
f 20//1 17//1 21//1
f 22//1 20//1 21//1
f 17//1 18//1 21//1
f 21//1 18//1 23//1
f 21//1 23//1 24//1
f 25//1 24//1 26//1
f 24//1 23//1 26//1
f 25//1 26//1 27//1
f 28//1 30//1 29//1
f 31//1 33//1 32//1
f 28//1 29//1 34//1
f 34//1 36//1 35//1
f 28//1 34//1 35//1
f 33//1 38//1 37//1
f 39//1 32//1 37//1
f 40//1 39//1 37//1
f 32//1 33//1 37//1
f 41//1 28//1 42//1
f 28//1 35//1 42//1
f 38//1 27//1 43//1
f 37//1 38//1 43//1
f 27//1 26//1 44//1
f 43//1 27//1 44//1
f 45//1 41//1 46//1
f 41//1 42//1 46//1
f 26//1 45//1 47//1
f 44//1 26//1 47//1
f 47//1 45//1 48//1
f 45//1 46//1 48//1
f 47//1 48//1 49//1
f 47//1 49//1 50//1
f 50//1 49//1 51//1
f 50//1 51//1 52//1
f 51//1 54//1 53//1
f 52//1 51//1 55//1
f 51//1 53//1 55//1
f 56//1 52//1 55//1
f 40//2 37//2 73//2 70//2
f 56//3 55//3 62//3 15//3
f 46//4 42//4 7//4 67//4
f 41//5 45//5 68//5 8//5
f 52//6 56//6 15//6 2//6
f 43//7 44//7 3//7 69//7
f 47//8 50//8 16//8 66//8
f 48//9 46//9 67//9 65//9
f 34//10 29//10 76//10 74//10
f 44//11 47//11 66//11 3//11
f 36//12 34//12 74//12 5//12
f 38//13 33//13 59//13 72//13
f 29//14 30//14 75//14 76//14
f 27//15 38//15 72//15 9//15
f 39//16 40//16 70//16 71//16
f 25//17 27//17 9//17 14//17
f 21//18 24//18 77//18 80//18
f 28//19 41//19 8//19 1//19
f 42//20 35//20 4//20 7//20
f 23//21 18//21 11//21 78//21
f 49//22 48//22 65//22 57//22
f 31//23 32//23 58//23 60//23
f 35//24 36//24 5//24 4//24
f 33//25 31//25 60//25 59//25
f 22//26 21//26 80//26 79//26
f 55//27 53//27 64//27 62//27
f 32//28 39//28 71//28 58//28
f 26//29 23//29 78//29 61//29
f 18//30 19//30 12//30 11//30
f 17//31 20//31 10//31 13//31
f 53//32 54//32 63//32 64//32
f 30//33 28//33 1//33 75//33
f 19//34 17//34 13//34 12//34
f 50//35 52//35 2//35 16//35
f 20//36 22//36 79//36 10//36
f 24//37 25//37 14//37 77//37
f 51//38 49//38 57//38 6//38
f 37//39 43//39 69//39 73//39
f 54//40 51//40 6//40 63//40
f 45//41 26//41 61//41 68//41
f 15//42 62//42 2//42
f 6//42 62//42 64//42
f 2//42 62//42 6//42
f 6//42 64//42 63//42
f 16//42 2//42 6//42
f 16//42 6//42 57//42
f 66//42 16//42 57//42
f 66//42 57//42 65//42
f 68//42 65//42 67//42
f 66//42 65//42 68//42
f 3//42 66//42 61//42
f 61//42 66//42 68//42
f 8//42 67//42 7//42
f 68//42 67//42 8//42
f 69//42 3//42 9//42
f 9//42 3//42 61//42
f 73//42 69//42 72//42
f 72//42 69//42 9//42
f 1//42 7//42 4//42
f 8//42 7//42 1//42
f 58//42 73//42 59//42
f 70//42 73//42 71//42
f 71//42 73//42 58//42
f 59//42 73//42 72//42
f 1//42 4//42 74//42
f 74//42 4//42 5//42
f 1//42 74//42 76//42
f 60//42 58//42 59//42
f 1//42 76//42 75//42
f 14//42 9//42 61//42
f 77//42 61//42 78//42
f 14//42 61//42 77//42
f 80//42 77//42 78//42
f 80//42 78//42 11//42
f 13//42 80//42 11//42
f 79//42 80//42 10//42
f 10//42 80//42 13//42
f 13//42 11//42 12//42
